<?xml version="1.0" standalone="no"?>
<!DOCTYPE svg PUBLIC "-//W3C//DTD SVG 20010904//EN"
 "http://www.w3.org/TR/2001/REC-SVG-20010904/DTD/svg10.dtd">
<svg version="1.0" xmlns="http://www.w3.org/2000/svg"
 width="700.000000pt" height="700.000000pt" viewBox="0 0 700.000000 700.000000"
 preserveAspectRatio="xMidYMid meet">
<metadata>
Created by potrace 1.14, written by Peter Selinger 2001-2017
</metadata>
<g transform="translate(0.000000,700.000000) scale(0.100000,-0.100000)"
fill="#000000" stroke="none">
<path d="M1105 5145 l-690 -272 -3 -160 -2 -161 42 -17 c24 -9 254 -100 513
-202 259 -101 474 -188 478 -192 4 -4 -146 -279 -334 -611 -187 -332 -343
-610 -346 -617 -4 -11 44 -13 262 -11 l267 3 96 178 96 177 393 0 393 0 5 -22
c3 -13 14 -81 25 -153 11 -71 23 -142 26 -157 l6 -28 244 0 c226 0 244 1 244
18 0 9 -78 456 -173 992 l-173 975 -299 0 -300 0 -132 -235 c-77 -136 -138
-234 -146 -232 -43 11 -807 287 -807 291 0 4 233 89 518 191 l517 186 3 167
c2 155 1 167 -15 166 -10 -1 -328 -124 -708 -274z m1040 -1134 c30 -194 55
-359 55 -367 0 -12 -44 -14 -255 -14 -140 0 -255 3 -255 7 0 10 392 734 396
730 2 -1 28 -162 59 -356z"/>
<path d="M4010 4920 c-346 -45 -594 -218 -675 -471 -69 -218 -26 -433 113
-560 83 -76 187 -120 430 -184 212 -55 291 -85 325 -123 49 -54 36 -167 -28
-232 -74 -76 -181 -110 -346 -110 -178 0 -370 51 -567 151 -52 27 -96 48 -97
47 -1 -2 -19 -100 -41 -218 l-40 -215 37 -17 c59 -26 244 -77 364 -99 139 -26
436 -37 556 -20 183 26 348 90 454 176 30 25 57 45 60 45 3 0 -149 -308 -340
-684 -190 -375 -345 -686 -345 -690 0 -3 67 -6 148 -6 l148 0 567 1118 c312
614 567 1122 567 1127 0 6 -56 10 -147 10 l-148 0 -128 -250 c-127 -249 -127
-250 -122 -190 15 145 -42 304 -140 393 -100 91 -211 140 -474 207 -101 25
-208 55 -237 66 -89 34 -130 106 -104 184 68 207 519 234 918 54 44 -20 64
-24 67 -16 20 67 77 409 70 416 -13 12 -210 55 -345 76 -124 19 -408 27 -500
15z"/>
<path d="M5630 3372 l0 -169 53 -20 c28 -11 264 -96 524 -189 l472 -168 -522
-186 -522 -186 -3 -171 -2 -171 137 54 c76 29 383 150 683 268 l545 214 3 178
2 179 -667 262 c-368 144 -676 265 -685 269 -17 6 -18 -6 -18 -164z"/>
</g>
</svg>
