<svg id="svg" version="1.1" xmlns="http://www.w3.org/2000/svg" xmlns:xlink="http://www.w3.org/1999/xlink" width="400" height="400" viewBox="0, 0, 400, 400">
    <circle cx="200" cy="200" r="200" fill="rgb(230, 240, 255)" />>
    <g id="svgg" 
        transform="translate(40 110)
                    scale(0.8 0.8)">
        <path id="path0" d="M36.705 24.577 C 20.141 36.504,6.578 46.486,6.565 46.761 C 6.552 47.035,16.741 57.690,29.206 70.438 L 51.869 93.617 59.033 87.608 L 66.197 81.598 49.921 65.342 C 40.969 56.401,33.645 48.848,33.645 48.558 C 33.645 48.267,43.213 41.363,54.907 33.214 C 66.600 25.065,76.884 17.786,77.759 17.038 C 79.439 15.603,70.488 2.739,67.885 2.848 C 67.301 2.873,53.270 12.651,36.705 24.577 M219.159 36.405 C 181.530 44.603,175.658 82.911,208.879 103.474 C 223.192 112.334,225.217 114.580,225.227 121.603 C 225.247 135.343,203.213 138.299,184.799 127.025 C 178.770 123.334,179.154 122.942,176.757 135.241 C 174.261 148.047,173.766 147.096,184.830 150.745 C 221.402 162.805,252.669 148.270,252.774 119.159 C 252.823 105.246,247.655 97.545,230.853 86.502 C 216.755 77.236,213.101 71.663,216.223 64.190 C 220.076 54.970,236.858 53.742,252.234 61.556 C 258.685 64.834,257.907 65.635,260.280 53.271 C 261.119 48.902,262.016 44.591,262.274 43.692 C 263.593 39.091,231.628 33.688,219.159 36.405 M96.590 94.604 C 78.162 126.076,63.189 152.045,63.318 152.315 C 63.446 152.584,68.483 152.804,74.511 152.804 L 85.471 152.804 93.376 138.551 L 101.280 124.299 123.836 124.299 L 146.392 124.299 147.526 132.944 C 148.150 137.699,149.110 144.217,149.659 147.430 L 150.659 153.271 160.844 153.271 C 166.445 153.271,171.028 153.050,171.028 152.779 C 171.028 151.475,153.190 39.567,152.820 38.551 C 152.513 37.706,149.315 37.383,141.245 37.383 L 130.095 37.383 96.590 94.604 M141.182 84.925 C 142.739 96.937,143.844 106.935,143.636 107.143 C 143.428 107.351,135.842 107.406,126.779 107.265 L 110.299 107.009 123.400 83.645 C 130.606 70.794,136.805 59.229,137.176 57.944 C 137.761 55.919,137.884 56.106,138.101 59.346 C 138.238 61.402,139.625 72.912,141.182 84.925 M273.578 165.777 C 251.101 201.441,232.710 230.895,232.710 231.230 C 232.710 231.565,237.225 231.720,242.742 231.574 L 252.774 231.308 293.176 167.290 C 315.397 132.079,333.593 102.745,333.611 102.103 C 333.636 101.242,331.120 100.935,324.046 100.935 L 314.446 100.935 273.578 165.777 M346.247 127.847 C 344.696 129.237,341.542 131.937,339.237 133.847 L 335.047 137.321 351.288 153.603 C 360.220 162.558,367.303 170.247,367.026 170.690 C 366.749 171.133,356.619 178.435,344.515 186.916 C 332.410 195.397,322.489 202.710,322.468 203.168 C 322.447 203.625,324.754 206.876,327.595 210.392 L 332.760 216.785 362.876 195.207 C 379.439 183.339,393.510 173.140,394.146 172.542 C 395.045 171.696,390.178 166.344,372.183 148.388 L 349.065 125.321 346.247 127.847 " stroke="none" fill="#000000" fill-rule="evenodd"></path>
    </g>
</svg>